# xmcd
#
# Track frame offsets:
#	150
#	18879
#	32846
#	49726
#	68600
#	84024
#	100491
#	115854
#	130829
#	149095
#	164770
#	178803
#
# Disc length: 2573 seconds
#
# Revision: 13
# Processed by: cddbd v1.5.2PL0 Copyright (c) Steve Scherf et al.
# Submitted via: audiograbber 1.83.01
#
DISCID=a30a0b0c
DTITLE=Helene Fischer - Helene Fischer (Deluxe Edition)
DYEAR=2017
DGENRE=Schlager
TTITLE0=Nur mit Dir
TTITLE1=Sonne auf der Haut
TTITLE2=Wenn Du lachst
TTITLE3=Flieger
TTITLE4=Herzbeben
TTITLE5=Wir zwei
TTITLE6=Schon lang nicht mehr getanzt
TTITLE7=Viva La Vida
TTITLE8=Mit dem Wind
TTITLE9=Wir brechen das Schweigen
TTITLE10=Gib mir deine Hand
TTITLE11=Du hast mich stark gemacht
EXTD=
EXTT0=
EXTT1=
EXTT2=
EXTT3=
EXTT4=
EXTT5=
EXTT6=
EXTT7=
EXTT8=
EXTT9=
EXTT10=
EXTT11=
PLAYORDER=
